#!OML:ASF H:\Terrain\Patient Classification 1\Walking\liu\liu.ASF
:FULLY-SPECIFIED
:DEGREES
344
root 9.34166 16.7823 12.5972 6.06895 10.7243 -0.987463
lowerback -6.28096 -4.03613 -2.29453
upperback -1.51387 -5.30308 3.05054
thorax 2.44616 -2.66972 3.97847
lowerneck -20.1264 -5.62505 -13.032
upperneck 21.0548 -7.33339 13.849
head 11.1883 -2.79003 6.13912
rclavicle 4.01359e-014 2.38542e-015
rhumerus -45.278 4.89603 -81.4793
rradius 32.1853
rwrist -17.816
rhand -27.3068 -24.8753
rfingers 7.12502
rthumb -0.71644 -54.8539
lclavicle 4.01359e-014 2.38542e-015
lhumerus -29.6368 -19.8665 100.12
lradius 22.6799
lwrist 2.71738
lhand -10.1606 -21.3415
lfingers 7.12502
lthumb 15.8289 8.03136
rfemur -31.7579 1.73809 24.107
rtibia 39.2596
rfoot -13.1735 1.99072
rtoes -12.5182
lfemur 2.58008 6.76888 -12.0395
ltibia 49.1847
lfoot 9.30274 6.1801
ltoes -12.6127
345
root 9.32343 16.8166 12.7043 6.33584 10.6553 -1.48842
lowerback -5.99144 -3.9174 -1.78693
upperback -1.95149 -5.17175 3.14506
thorax 1.78562 -2.58718 3.84381
lowerneck -19.3941 -5.53084 -12.894
upperneck 20.923 -7.26366 13.6449
head 10.9708 -2.79663 6.04255
rclavicle 6.01261e-014 1.11319e-014
rhumerus -45.6171 5.37252 -81.8769
rradius 32.8829
rwrist -18.4016
rhand -26.2097 -31.3188
rfingers 7.12502
rthumb 0.343222 -61.2983
lclavicle 6.01261e-014 1.11319e-014
lhumerus -30.5235 -18.7759 99.7575
lradius 22.4119
lwrist 1.91534
lhand -9.80898 -20.4387
lfingers 7.12502
lthumb 16.1676 8.90699
rfemur -31.4596 2.15719 24.7997
rtibia 38.708
rfoot -12.9772 1.58567
rtoes -11.4432
lfemur 0.307102 6.93474 -11.6761
ltibia 51.4187
lfoot 8.26819 7.62565
ltoes -9.65402
346
root 9.29786 16.841 12.8098 6.53917 10.4842 -1.97471
lowerback -5.75524 -3.76437 -1.58453
upperback -2.12749 -4.98112 3.3902
thorax 1.46189 -2.48594 4.02405
lowerneck -19.1628 -5.5245 -13.3166
upperneck 20.7 -7.25494 14.1331
head 10.8831 -2.78175 6.29853
rclavicle 4.10584e-014 1.03368e-014
rhumerus -45.5869 6.65674 -82.5648
rradius 33.8389
rwrist -19.4367
rhand -27.2797 -33.141
rfingers 7.12502
rthumb -0.690224 -63.1196
lclavicle 4.10584e-014 1.03368e-014
lhumerus -30.9318 -17.9233 99.5116
lradius 22.2393
lwrist 1.44253
lhand -9.51961 -19.5442
lfingers 7.12502
lthumb 16.4462 9.77872
rfemur -31.148 2.87877 25.4601
rtibia 38.0692
rfoot -12.7029 0.947868
rtoes -10.8227
lfemur -1.93295 7.24697 -11.2531
ltibia 53.574
lfoot 7.16596 8.77274
ltoes -6.74461
347
root 9.31175 16.8784 12.9967 6.20955 10.2975 -0.939873
lowerback -5.82398 -3.66053 -2.57723
upperback -1.70016 -4.78935 3.09238
thorax 1.97973 -2.40555 4.2661
lowerneck -19.6659 -5.6992 -13.5551
upperneck 20.7759 -7.42918 14.3422
head 11.0578 -2.83846 6.39603
rclavicle -2.85504e-014 -2.78299e-015
rhumerus -45.0317 7.60032 -82.9219
rradius 34.7226
rwrist -20.3474
rhand -29.1112 -29.7898
rfingers 7.12502
rthumb -2.4591 -59.7554
lclavicle -2.85504e-014 -2.78299e-015
lhumerus -31.0804 -17.7198 99.3475
lradius 22.1932
lwrist 1.2877
lhand -8.92639 -18.8483
lfingers 7.12502
lthumb 17.0173 10.4263
rfemur -29.5178 2.3622 24.5063
rtibia 37.4748
rfoot -13.0874 1.56388
rtoes -10.4891
lfemur -2.39552 7.07576 -12.7517
ltibia 55.0943
lfoot 5.79939 9.86864
ltoes -6.14469
348
root 9.29539 16.9056 13.1212 6.29207 10.0724 -1.19457
lowerback -5.80343 -3.42816 -2.35898
upperback -1.62617 -4.49332 3.09596
thorax 2.00022 -2.25806 4.1722
lowerneck -19.7208 -5.8507 -13.5485
upperneck 20.5399 -7.61701 14.3513
head 11.0138 -2.92056 6.35593
rclavicle -6.90156e-015 -1.39149e-014
rhumerus -44.6132 8.23297 -83.3105
rradius 35.4972
rwrist -21.2635
rhand -29.7713 -29.067
rfingers 7.12502
rthumb -3.09662 -59.0243
lclavicle -6.90156e-015 -1.39149e-014
lhumerus -31.5805 -18.415 99.3454
lradius 22.3065
lwrist 1.784
lhand -8.87877 -18.5869
lfingers 7.12502
lthumb 17.0631 10.6838
rfemur -28.8563 2.74492 24.9211
rtibia 36.8304
rfoot -13.0131 1.47505
rtoes -7.91008
lfemur -4.18283 7.26845 -12.6976
ltibia 56.7627
lfoot 5.11254 10.3399
ltoes -5.91473
349
root 9.28391 16.9311 13.2577 6.33744 9.88773 -1.58438
lowerback -5.97535 -3.25886 -1.96308
upperback -1.55167 -4.29109 3.13472
thorax 2.12862 -2.15778 3.99563
lowerneck -19.5404 -5.87185 -13.5855
upperneck 20.2468 -7.65534 14.4656
head 10.8857 -2.93582 6.38792
rclavicle 2.21024e-014 1.31198e-014
rhumerus -44.2494 9.02411 -83.7843
rradius 35.9426
rwrist -22.1297
rhand -29.8485 -29.5093
rfingers 7.12502
rthumb -3.1712 -59.4655
lclavicle 2.21024e-014 1.31198e-014
lhumerus -32.331 -19.7008 99.6571
lradius 22.3823
lwrist 2.99069
lhand -9.38695 -18.6218
lfingers 7.12502
lthumb 16.5739 10.6904
rfemur -28.1379 3.06087 25.4808
rtibia 36.2753
rfoot -12.9759 1.3614
rtoes -5.29659
lfemur -5.80982 7.53353 -12.4927
ltibia 58.1488
lfoot 4.10781 10.8187
ltoes -5.83289
350
root 9.27807 16.9554 13.4002 6.39483 9.78969 -2.17939
lowerback -6.25218 -3.14581 -1.30087
upperback -1.5782 -4.18163 3.23598
thorax 2.20676 -2.09976 3.72447
lowerneck -19.452 -5.8175 -13.5443
upperneck 20.3832 -7.60041 14.4033
head 10.9042 -2.91721 6.3719
rclavicle -4.18814e-014 1.86858e-014
rhumerus -43.7504 9.6026 -84.0018
rradius 35.9097
rwrist -22.5218
rhand -29.699 -28.8263
rfingers 7.12502
rthumb -3.02677 -58.7846
lclavicle -4.18814e-014 1.86858e-014
lhumerus -33.1822 -20.4393 99.8626
lradius 22.4239
lwrist 3.69617
lhand -9.41205 -18.5878
lfingers 7.12502
lthumb 16.5498 10.7264
rfemur -27.3662 3.41805 26.2262
rtibia 35.5963
rfoot -13.1717 0.971952
rtoes -6.58664
lfemur -7.43841 7.78848 -12.0864
ltibia 59.5916
lfoot 2.78567 11.1859
ltoes -6.27782
351
root 9.27773 16.9759 13.5358 6.41581 9.61696 -2.41417
lowerback -6.30943 -2.93231 -0.924206
upperback -1.54959 -3.92033 3.19872
thorax 2.22047 -1.96706 3.49409
lowerneck -19.7532 -5.94209 -13.545
upperneck 20.5756 -7.75315 14.3716
head 11.0572 -2.97825 6.34179
rclavicle 8.07563e-015 1.11319e-014
rhumerus -43.3347 10.2161 -84.2228
rradius 36.3731
rwrist -23.0657
rhand -29.3607 -29.2413
rfingers 7.12502
rthumb -2.70007 -59.2039
lclavicle 8.07563e-015 1.11319e-014
lhumerus -33.9005 -20.8025 99.8554
lradius 22.7735
lwrist 3.95809
lhand -9.45018 -18.5376
lfingers 7.12502
lthumb 16.5131 10.7797
rfemur -26.5425 3.59429 26.5847
rtibia 34.9694
rfoot -13.4537 0.763971
rtoes -8.36786
lfemur -8.91391 7.79136 -12.195
ltibia 60.7547
lfoot 1.87202 11.5424
ltoes -5.12055
352
root 9.28148 16.9938 13.6674 6.35186 9.36943 -2.34729
lowerback -6.21101 -2.73266 -0.939241
upperback -1.42518 -3.65443 3.14739
thorax 2.27302 -1.83605 3.47421
lowerneck -20.026 -6.07845 -13.6373
upperneck 20.5341 -7.90507 14.4701
head 11.1299 -3.03338 6.36808
rclavicle 1.21507e-014 3.57812e-015
rhumerus -42.8771 10.8944 -84.3346
rradius 37.0252
rwrist -23.4112
rhand -29.5263 -29.3989
rfingers 7.12502
rthumb -2.85999 -59.3595
lclavicle 1.21507e-014 3.57812e-015
lhumerus -34.5575 -20.8628 99.775
lradius 23.43
lwrist 4.52996
lhand -9.46716 -18.4143
lfingers 7.12502
lthumb 16.4967 10.9044
rfemur -25.6214 3.53256 26.6513
rtibia 34.4193
rfoot -13.6046 0.983856
rtoes -8.72634
lfemur -10.2892 7.58165 -12.7047
ltibia 61.6853
lfoot -1.14728 12.4694
ltoes -14.5193
